<svg xmlns="http://www.w3.org/2000/svg" viewBox="0 0 19.893 17.203"><defs><style>.a{fill:#5b5651;}</style></defs><path class="a" d="M7.007,13.468a.27.27,0,0,1-.236.253c-3.334.531-2.932,2.627-3.052,3.286a.216.216,0,0,1-.43,0c-.12-.659.282-2.755-3.053-3.286a.254.254,0,0,1,0-.506c3.335-.532,2.933-2.628,3.053-3.283a.216.216,0,0,1,.43,0c.119.659-.282,2.755,3.052,3.286a.272.272,0,0,1,.236.253"/><path class="a" d="M19.89,5.866a.425.425,0,0,1-.371.4c-5.236.834-4.6,4.125-4.792,5.16a.339.339,0,0,1-.675,0c-.186-1.038.445-4.326-4.791-5.163a.4.4,0,0,1,0-.795c5.236-.835,4.6-4.125,4.793-5.16a.339.339,0,0,1,.675,0c.187,1.035-.444,4.325,4.792,5.16a.425.425,0,0,1,.371.4"/></svg>